<svg width="19" height="21" viewBox="0 0 19 21" fill="none" xmlns="http://www.w3.org/2000/svg">
<path d="M7.93376 20.2572C7.5974 20.1136 7.48789 19.8631 7.49313 19.5112C7.50938 18.4893 7.4968 17.4669 7.50204 16.4444C7.50543 16.3823 7.49466 16.3203 7.47047 16.2627C7.44628 16.2051 7.40929 16.1535 7.36215 16.1114C6.29541 15.0822 5.23164 14.0504 4.17084 13.0161C4.1166 12.97 4.05937 12.9273 3.99951 12.8883L4.02728 12.8435H14.6831C14.6307 12.8985 14.5904 12.9453 14.5443 12.9922C13.4772 14.0299 12.4092 15.0666 11.3404 16.1023C11.2902 16.1456 11.2505 16.1992 11.2242 16.2593C11.1979 16.3193 11.1857 16.3843 11.1885 16.4495C11.1963 17.0845 11.1838 17.7194 11.1953 18.3544C11.201 18.6726 11.0701 18.8814 10.7761 19.0199C9.94359 19.4155 9.11577 19.8198 8.2869 20.221C8.27141 20.2311 8.25748 20.2433 8.24551 20.2572H7.93376Z" fill="#F44F59"/>
<path d="M9.35164 8.09399C11.6385 8.09399 13.9253 8.09399 16.2121 8.09399C17.1358 8.09399 17.8546 8.62965 18.0705 9.46471C18.3524 10.5549 17.5031 11.6542 16.3457 11.6781C15.6646 11.6924 14.9871 11.6822 14.3076 11.6822C10.3676 11.6822 6.42753 11.6822 2.48752 11.6822C1.5701 11.6822 0.851258 11.1588 0.62806 10.3364C0.558165 10.0762 0.549521 9.80406 0.602768 9.54017C0.656016 9.27628 0.769784 9.02744 0.935618 8.81217C1.10145 8.59689 1.31508 8.42071 1.56063 8.29673C1.80618 8.17274 2.07733 8.10414 2.35391 8.09603C2.38011 8.09603 2.40631 8.09603 2.43198 8.09603L9.35164 8.09399Z" fill="#F44F59"/>
<path d="M15.6416 5.55773C15.1511 5.5563 14.6721 5.4134 14.2653 5.14712C13.8585 4.88085 13.5421 4.50319 13.3564 4.06202C13.1706 3.62084 13.1238 3.13601 13.2219 2.66895C13.32 2.2019 13.5585 1.77366 13.9073 1.4385C14.2561 1.10333 14.6994 0.876337 15.181 0.786278C15.6627 0.696218 16.161 0.747149 16.6129 0.932614C17.0647 1.11808 17.4497 1.42973 17.7191 1.82807C17.9885 2.22642 18.1302 2.69352 18.1262 3.17018C18.1198 3.80616 17.8551 4.41394 17.3898 4.86113C16.9244 5.30832 16.2961 5.5587 15.6416 5.55773Z" fill="#F44F59"/>
<path d="M9.31706 6.78436C7.9129 6.75635 6.83935 5.66059 6.87079 4.28937C6.90065 2.99757 8.05279 1.94154 9.40246 1.96903C10.7705 1.99653 11.8472 3.10502 11.8189 4.45791C11.7921 5.74359 10.6484 6.81083 9.31706 6.78436Z" fill="#F44F59"/>
<path d="M5.52154 3.14678C5.52267 3.62322 5.37844 4.08928 5.10708 4.48607C4.83572 4.88286 4.4494 5.19256 3.99696 5.37602C3.54452 5.55948 3.04628 5.60847 2.5652 5.51679C2.08412 5.42511 1.6418 5.19688 1.29416 4.86096C0.946518 4.52503 0.709159 4.09648 0.612083 3.62948C0.515006 3.16248 0.562571 2.67799 0.748766 2.23725C0.93496 1.79652 1.25143 1.41933 1.65816 1.15335C2.06489 0.887369 2.54364 0.744548 3.03387 0.742935C3.3597 0.741797 3.68256 0.803098 3.98398 0.923331C4.2854 1.04356 4.55948 1.22037 4.79053 1.44363C5.02158 1.6669 5.20507 1.93224 5.3305 2.22448C5.45593 2.51672 5.52085 2.83014 5.52154 3.14678Z" fill="#F44F59"/>
</svg>
